<svg width="1003" height="863" viewBox="0 0 1003 863" fill="none" xmlns="http://www.w3.org/2000/svg">
<path d="M509.014 242.933C469.618 242.933 437.795 259.336 413.552 292.143C389.737 324.952 377.832 369.854 377.832 426.858C377.832 483.857 389.955 528.56 414.202 560.954C438.444 593.352 468.751 609.553 505.116 609.553C541.918 609.553 567.46 600.733 581.746 583.102C596.467 565.057 603.826 538.81 603.826 504.365V479.759C603.826 474.839 600.796 472.377 594.736 472.377H551.226V461.303H683.707V472.377H666.169C660.11 472.377 657.08 474.839 657.08 479.759V501.903C657.08 538.399 643.226 568.543 615.518 592.328C587.809 615.703 552.307 627.391 509.014 627.391C454.465 627.391 409.655 609.553 374.585 573.872C339.95 538.196 322.633 489.191 322.633 426.858C322.633 364.114 339.733 314.903 373.936 279.226C408.569 243.138 453.597 225.094 509.014 225.094C537.153 225.094 565.298 231.86 593.437 245.394C602.527 249.904 609.022 252.16 612.919 252.16C619.415 252.16 622.876 247.854 623.308 239.242L623.957 228.785H636.299V335.201H624.607C620.714 303.626 608.159 280.456 586.942 265.693C566.161 250.52 540.183 242.933 509.014 242.933Z" fill="black" fill-opacity="0.4"/>
<path fill-rule="evenodd" clip-rule="evenodd" d="M915.403 518.701C873.17 698.453 703.817 832.839 501.328 832.839C298.837 832.839 129.484 698.453 87.2534 518.701H55.6946C98.4513 714.712 281.723 862.062 501.328 862.062C720.932 862.062 904.204 714.712 946.961 518.701H915.403ZM87.2534 343.362C129.484 163.611 298.837 29.2223 501.328 29.2223C703.817 29.2223 873.17 163.611 915.403 343.362H946.961C904.204 147.349 720.932 0 501.328 0C281.723 0 98.4513 147.349 55.6946 343.362H87.2534Z" fill="black" fill-opacity="0.4"/>
<path fill-rule="evenodd" clip-rule="evenodd" d="M852.807 518.701C811.899 665.865 670.446 774.393 502.231 774.393C334.015 774.393 192.561 665.865 151.653 518.701H143.682C184.779 669.943 329.726 781.7 502.231 781.7C674.735 781.7 819.68 669.943 860.776 518.701H852.807ZM151.653 343.362C192.561 196.196 334.015 87.6672 502.231 87.6672C670.446 87.6672 811.899 196.196 852.807 343.362H860.776C819.68 192.118 674.735 80.3616 502.231 80.3616C329.726 80.3616 184.779 192.118 143.682 343.362H151.653Z" fill="black" fill-opacity="0.4"/>
<path fill-rule="evenodd" clip-rule="evenodd" d="M215.957 431.031H0V423.724H215.957V431.031Z" fill="black" fill-opacity="0.4"/>
<path fill-rule="evenodd" clip-rule="evenodd" d="M1002.66 431.031H786.702V423.724H1002.66V431.031Z" fill="black" fill-opacity="0.4"/>
</svg>
