<svg width="175" height="176" viewBox="0 0 175 176" fill="none" xmlns="http://www.w3.org/2000/svg">
<path d="M24.5912 148.053C23.0055 148.053 21.7248 148.737 20.7491 150.105C19.7907 151.474 19.3115 153.347 19.3115 155.725C19.3115 158.103 19.7994 159.968 20.7752 161.319C21.751 162.671 22.9707 163.346 24.4344 163.346C25.9154 163.346 26.9435 162.978 27.5185 162.243C28.111 161.49 28.4072 160.396 28.4072 158.958V157.932C28.4072 157.727 28.2853 157.624 28.0413 157.624H26.2901V157.162H31.6221V157.624H30.9163C30.6724 157.624 30.5505 157.727 30.5505 157.932V158.855C30.5505 160.379 29.9929 161.636 28.8777 162.628C27.7625 163.603 26.3337 164.09 24.5912 164.09C22.3957 164.09 20.5922 163.346 19.1808 161.858C17.7868 160.37 17.0898 158.326 17.0898 155.725C17.0898 153.108 17.7782 151.055 19.1547 149.567C20.5486 148.062 22.3608 147.308 24.5912 147.308C25.7238 147.308 26.8564 147.591 27.989 148.155C28.3549 148.343 28.6163 148.438 28.7731 148.438C29.0345 148.438 29.1739 148.258 29.1913 147.899L29.2175 147.463H29.714V151.902H29.2436C29.0868 150.585 28.5815 149.618 27.7277 149.002C26.8913 148.369 25.8458 148.053 24.5912 148.053Z" fill="#17181A"/>
<path d="M39.3278 152.389C40.0074 152.389 40.5562 152.672 40.9745 153.236C41.4101 153.8 41.6279 154.511 41.6279 155.366C41.6279 156.221 41.2707 156.649 40.5562 156.649C40.1381 156.649 39.7983 156.52 39.5369 156.264C39.7634 155.768 39.8767 155.263 39.8767 154.75C39.8767 153.843 39.4934 153.39 38.7267 153.39C38.082 153.39 37.5069 153.921 37.0016 154.981C36.5137 156.025 36.2698 157.547 36.2698 159.549V162.961C36.2698 163.201 36.3917 163.321 36.6357 163.321H38.3869V163.783H32.7936V163.321H34.022C34.266 163.321 34.3879 163.201 34.3879 162.961V153.519C34.3879 153.279 34.266 153.159 34.022 153.159H32.7936V152.697H34.0743C35.1198 152.697 35.8516 152.646 36.2698 152.543V155.828C36.5486 154.647 36.9581 153.783 37.4983 153.236C38.0384 152.672 38.6483 152.389 39.3278 152.389Z" fill="#17181A"/>
<path d="M44.5212 162.961V153.519C44.5212 153.279 44.3992 153.159 44.1552 153.159H42.9268V152.697H44.2075C45.253 152.697 45.9848 152.646 46.403 152.543V163.012C46.403 163.218 46.525 163.321 46.769 163.321H47.9974V163.783H42.9268V163.321H44.1552C44.3992 163.321 44.5212 163.201 44.5212 162.961ZM44.5735 149.874C44.3469 149.635 44.2336 149.344 44.2336 149.002C44.2336 148.66 44.3469 148.378 44.5735 148.155C44.8174 147.916 45.1136 147.796 45.4621 147.796C45.8106 147.796 46.0981 147.916 46.3246 148.155C46.5686 148.378 46.6905 148.66 46.6905 149.002C46.6905 149.344 46.5686 149.635 46.3246 149.874C46.0981 150.097 45.8106 150.208 45.4621 150.208C45.1136 150.208 44.8174 150.097 44.5735 149.874Z" fill="#17181A"/>
<path d="M51.1483 162.961V147.975C51.1483 147.736 51.0264 147.617 50.7824 147.617H49.554V147.154H50.8347C51.8802 147.154 52.612 147.103 53.0302 147.001V162.961C53.0302 163.201 53.1522 163.321 53.3961 163.321H54.6246V163.783H49.554V163.321H50.7824C51.0264 163.321 51.1483 163.201 51.1483 162.961Z" fill="#17181A"/>
<path d="M57.7847 162.961V147.975C57.7847 147.736 57.6628 147.617 57.4188 147.617H56.1904V147.154H57.4711C58.5166 147.154 59.2484 147.103 59.6666 147.001V162.961C59.6666 163.201 59.7885 163.321 60.0325 163.321H61.2609V163.783H56.1904V163.321H57.4188C57.6628 163.321 57.7847 163.201 57.7847 162.961Z" fill="#17181A"/>
<path d="M62.8267 158.368V157.342H69.4135V158.368H62.8267Z" fill="#17181A"/>
<path d="M73.1644 161.858C71.7883 160.37 71.0999 158.317 71.0999 155.699C71.0999 153.082 71.7883 151.029 73.1644 149.541C74.5589 148.053 76.3622 147.308 78.575 147.308C80.8056 147.308 82.6089 148.053 83.9856 149.541C85.3795 151.029 86.0761 153.082 86.0761 155.699C86.0761 158.317 85.3795 160.37 83.9856 161.858C82.6089 163.346 80.8056 164.09 78.575 164.09C76.3622 164.09 74.5589 163.346 73.1644 161.858ZM74.8111 150.054C73.8179 151.44 73.3216 153.322 73.3216 155.699C73.3216 158.078 73.8179 159.959 74.8111 161.344C75.8222 162.731 77.0766 163.423 78.575 163.423C80.0734 163.423 81.3278 162.731 82.3389 161.344C83.3492 159.959 83.8544 158.078 83.8544 155.699C83.8544 153.322 83.3492 151.44 82.3389 150.054C81.3278 148.669 80.0734 147.975 78.575 147.975C77.0766 147.975 75.8222 148.669 74.8111 150.054Z" fill="#17181A"/>
<path d="M87.7639 158.368V157.342H94.351V158.368H87.7639Z" fill="#17181A"/>
<path d="M96.0374 148.079V147.617H102.415C103.896 147.617 105.141 148.062 106.153 148.951C107.181 149.823 107.694 151.004 107.694 152.492C107.694 153.98 107.181 155.169 106.153 156.059C105.141 156.931 103.896 157.367 102.415 157.367H99.7746V162.961C99.7746 163.201 99.897 163.321 100.141 163.321H101.892V163.783H96.0374V163.321H97.2658C97.5099 163.321 97.6315 163.201 97.6315 162.961V148.386C97.6315 148.181 97.5099 148.079 97.2658 148.079H96.0374ZM102.284 148.335H99.7746V156.649H102.284C103.312 156.649 104.122 156.239 104.715 155.417C105.307 154.579 105.604 153.604 105.604 152.492C105.604 151.38 105.307 150.413 104.715 149.592C104.122 148.754 103.312 148.335 102.284 148.335Z" fill="#17181A"/>
<path d="M115.544 152.389C116.224 152.389 116.773 152.672 117.191 153.236C117.627 153.8 117.844 154.511 117.844 155.366C117.844 156.221 117.487 156.649 116.773 156.649C116.355 156.649 116.015 156.52 115.753 156.264C115.98 155.768 116.093 155.263 116.093 154.75C116.093 153.843 115.71 153.39 114.943 153.39C114.298 153.39 113.723 153.921 113.218 154.981C112.73 156.025 112.486 157.547 112.486 159.549V162.961C112.486 163.201 112.608 163.321 112.852 163.321H114.603V163.783H109.01V163.321H110.238C110.482 163.321 110.604 163.201 110.604 162.961V153.519C110.604 153.279 110.482 153.159 110.238 153.159H109.01V152.697H110.29C111.336 152.697 112.068 152.646 112.486 152.543V155.828C112.765 154.647 113.174 153.783 113.714 153.236C114.255 152.672 114.864 152.389 115.544 152.389Z" fill="#17181A"/>
<path d="M124.292 152.389C125.494 152.389 126.444 152.782 127.141 153.57C127.838 154.357 128.186 155.511 128.186 157.034C128.186 157.342 128.169 157.684 128.134 158.061H120.999V158.24C120.999 159.865 121.295 161.148 121.887 162.089C122.497 163.012 123.272 163.475 124.214 163.475C125.172 163.475 125.956 163.235 126.566 162.756C127.176 162.277 127.594 161.593 127.82 160.703L128.317 160.806C128.108 161.85 127.629 162.662 126.88 163.244C126.131 163.808 125.268 164.09 124.292 164.09C122.776 164.09 121.513 163.569 120.502 162.525C119.509 161.482 119.012 160.062 119.012 158.266C119.012 156.452 119.517 155.024 120.529 153.98C121.539 152.92 122.793 152.389 124.292 152.389ZM126.383 156.161C126.383 154.057 125.582 153.005 123.979 153.005C123.177 153.005 122.488 153.433 121.913 154.288C121.356 155.144 121.06 156.23 121.025 157.547H126.278C126.348 156.965 126.383 156.503 126.383 156.161Z" fill="#17181A"/>
<path d="M133.947 156.829L136.665 157.829C137.31 158.069 137.798 158.436 138.129 158.933C138.478 159.412 138.652 159.951 138.652 160.549C138.652 161.473 138.277 162.294 137.528 163.012C136.779 163.731 135.768 164.09 134.496 164.09C133.241 164.09 132.057 163.859 130.942 163.397C131.046 162.987 131.098 162.269 131.098 161.242V160.216H131.569L131.752 161.55C131.908 162.833 132.824 163.475 134.496 163.475C135.246 163.475 135.864 163.252 136.352 162.807C136.858 162.345 137.11 161.824 137.11 161.242C137.11 160.438 136.613 159.856 135.62 159.497L132.902 158.497C132.292 158.274 131.83 157.923 131.517 157.445C131.203 156.965 131.046 156.427 131.046 155.828C131.046 154.921 131.377 154.126 132.04 153.441C132.701 152.74 133.529 152.389 134.522 152.389C135.533 152.389 136.665 152.62 137.92 153.082C137.815 153.493 137.763 154.211 137.763 155.238V156.264H137.293L137.11 154.93C136.97 153.698 136.177 153.082 134.732 153.082C134.087 153.082 133.555 153.279 133.137 153.673C132.719 154.066 132.51 154.528 132.51 155.058C132.51 155.879 132.989 156.469 133.947 156.829Z" fill="#17181A"/>
<path d="M143.423 149.977H143.815V152.697H146.429V153.159H143.815V161.858C143.815 162.782 144.076 163.243 144.599 163.243C144.843 163.243 145.052 163.133 145.226 162.91C145.418 162.688 145.514 162.431 145.514 162.14C145.514 161.85 145.488 161.576 145.435 161.319L145.932 161.242C146.002 161.499 146.037 161.781 146.037 162.089C146.037 162.705 145.845 163.192 145.461 163.552C145.096 163.911 144.607 164.09 143.998 164.09C143.388 164.09 142.892 163.851 142.508 163.372C142.125 162.876 141.933 162.14 141.933 161.165V153.519C141.933 153.279 141.811 153.159 141.567 153.159H140.338V152.697H141.619C142.177 152.697 142.778 151.791 143.423 149.977Z" fill="#17181A"/>
<path d="M149.472 162.525C148.496 161.482 148.008 160.053 148.008 158.24C148.008 156.427 148.496 154.998 149.472 153.955C150.447 152.911 151.72 152.389 153.288 152.389C154.856 152.389 156.128 152.911 157.104 153.955C158.097 154.998 158.594 156.427 158.594 158.24C158.594 160.053 158.097 161.482 157.104 162.525C156.128 163.569 154.856 164.09 153.288 164.09C151.72 164.09 150.447 163.569 149.472 162.525ZM150.935 154.391C150.309 155.332 149.995 156.615 149.995 158.24C149.995 159.865 150.309 161.156 150.935 162.115C151.563 163.056 152.347 163.526 153.288 163.526C154.229 163.526 155.013 163.056 155.64 162.115C156.285 161.156 156.607 159.865 156.607 158.24C156.607 156.615 156.285 155.332 155.64 154.391C155.013 153.433 154.229 152.954 153.288 152.954C152.347 152.954 151.563 153.433 150.935 154.391Z" fill="#17181A"/>
<path d="M86.1137 45.6406C80.7714 45.6406 76.4565 47.9819 73.1685 52.6647C69.9398 57.3474 68.3251 63.7569 68.3251 71.8928C68.3251 80.0296 69.9692 86.4096 73.2566 91.0334C76.544 95.6579 80.6538 97.9698 85.5853 97.9698C90.5755 97.9698 94.0393 96.7114 95.9766 94.1944C97.9727 91.6193 98.9707 87.8732 98.9707 82.9561V79.4438C98.9707 78.7417 98.5599 78.3904 97.7382 78.3904H91.8381V76.8099H109.802V78.3904H107.425C106.603 78.3904 106.192 78.7417 106.192 79.4438V82.6047C106.192 87.8144 104.313 92.1169 100.556 95.5116C96.7989 98.8483 91.9844 100.516 86.1137 100.516C78.7165 100.516 72.64 97.9699 67.8848 92.8778C63.1882 87.785 60.8398 80.7905 60.8398 71.8928C60.8398 62.9374 63.1588 55.9133 67.7968 50.8209C72.4938 45.6699 78.5989 43.0944 86.1137 43.0944C89.9295 43.0944 93.746 44.0601 97.5618 45.9918C98.7943 46.6357 99.6755 46.9576 100.204 46.9576C101.084 46.9576 101.554 46.343 101.613 45.1138L101.701 43.6211H103.374V58.8107H101.788C101.261 54.3037 99.5579 50.9964 96.6813 48.8893C93.8629 46.7235 90.341 45.6406 86.1137 45.6406Z" fill="black"/>
<path fill-rule="evenodd" clip-rule="evenodd" d="M141.222 85.0021C135.494 110.659 112.53 129.841 85.0712 129.841C57.6131 129.841 34.6482 110.659 28.9217 85.0021H24.6423C30.4402 112.98 55.2924 134.012 85.0712 134.012C114.851 134.012 139.703 112.98 145.501 85.0021H141.222ZM28.9217 59.9756C34.6482 34.3186 57.6131 15.1365 85.0712 15.1365C112.53 15.1365 135.494 34.3186 141.222 59.9756H145.501C139.703 31.9974 114.851 10.9655 85.0712 10.9655C55.2924 10.9655 30.4402 31.9974 24.6423 59.9756H28.9217Z" fill="black"/>
<path fill-rule="evenodd" clip-rule="evenodd" d="M132.733 85.0021C127.186 106.008 108.004 121.499 85.1936 121.499C62.3833 121.499 43.2018 106.008 37.6545 85.0021H36.5735C42.1464 106.591 61.8017 122.542 85.1936 122.542C108.586 122.542 128.241 106.591 133.814 85.0021H132.733ZM37.6545 59.9757C43.2018 38.9696 62.3833 23.4787 85.1936 23.4787C108.004 23.4787 127.186 38.9696 132.733 59.9757H133.814C128.241 38.3875 108.586 22.436 85.1936 22.436C61.8017 22.436 42.1464 38.3875 36.5735 59.9757H37.6545Z" fill="black"/>
<path fill-rule="evenodd" clip-rule="evenodd" d="M46.3742 72.4889H17.0898V71.4464H46.3742V72.4889Z" fill="black"/>
<path fill-rule="evenodd" clip-rule="evenodd" d="M153.053 72.4889H123.769V71.4464H153.053V72.4889Z" fill="black"/>
</svg>
