<svg width="60" height="60" viewBox="0 0 60 60" fill="none" xmlns="http://www.w3.org/2000/svg">
<path d="M30.4132 19.363C28.2951 19.363 26.5842 20.2906 25.2808 22.1458C24.0005 24.0012 23.3604 26.5404 23.3604 29.764C23.3604 32.9873 24.0122 35.5153 25.3158 37.3472C26.6191 39.1793 28.2485 40.0955 30.2037 40.0955C32.1823 40.0955 33.5555 39.5967 34.3235 38.5997C35.115 37.5792 35.5106 36.0949 35.5106 34.147V32.7555C35.5106 32.4773 35.3477 32.3381 35.0219 32.3381H32.6826V31.7119H39.8053V32.3381H38.8624C38.5366 32.3381 38.3737 32.4773 38.3737 32.7555V34.0078C38.3737 36.0717 37.6289 37.7763 36.1392 39.1214C34.6495 40.4433 32.7408 41.1042 30.4132 41.1042C27.4805 41.1042 25.0713 40.0955 23.1859 38.0777C21.3238 36.0602 20.3927 33.289 20.3927 29.764C20.3927 26.2158 21.3121 23.4329 23.1509 21.4153C25.013 19.3745 27.4338 18.3542 30.4132 18.3542C31.9261 18.3542 33.4392 18.7368 34.9521 19.5021C35.4408 19.7572 35.79 19.8848 35.9995 19.8848C36.3487 19.8848 36.5348 19.6412 36.558 19.1543L36.593 18.5629H37.2565V24.5808H36.6279C36.4186 22.7952 35.7436 21.4849 34.6029 20.65C33.4856 19.792 32.089 19.363 30.4132 19.363Z" fill="white"/>
<path fill-rule="evenodd" clip-rule="evenodd" d="M52.2621 34.9577C49.9915 45.1228 40.8865 52.7224 30 52.7224C19.1134 52.7224 10.0084 45.1228 7.73791 34.9577H6.0412C8.33995 46.0423 18.1933 54.375 30 54.375C41.8066 54.375 51.66 46.0423 53.9587 34.9577H52.2621ZM7.73791 25.0423C10.0084 14.8773 19.1134 7.27753 30 7.27753C40.8865 7.27753 49.9915 14.8773 52.2621 25.0423H53.9587C51.66 13.9576 41.8066 5.625 30 5.625C18.1933 5.625 8.33995 13.9576 6.0412 25.0423H7.73791Z" fill="white"/>
<path fill-rule="evenodd" clip-rule="evenodd" d="M48.8967 34.9577C46.6973 43.2799 39.0923 49.4173 30.0485 49.4173C21.0046 49.4173 13.3996 43.2799 11.2002 34.9577H10.7717C12.9812 43.5105 20.774 49.8305 30.0485 49.8305C39.3229 49.8305 47.1157 43.5105 49.3251 34.9577H48.8967ZM11.2002 25.0423C13.3996 16.72 21.0046 10.5826 30.0485 10.5826C39.0923 10.5826 46.6973 16.72 48.8967 25.0423H49.3251C47.1157 16.4893 39.3229 10.1695 30.0485 10.1695C20.774 10.1695 12.9812 16.4893 10.7717 25.0423H11.2002Z" fill="white"/>
<path fill-rule="evenodd" clip-rule="evenodd" d="M14.6575 30H3.04688V29.5868H14.6575V30Z" fill="white"/>
<path fill-rule="evenodd" clip-rule="evenodd" d="M56.9531 30H45.3427V29.5868H56.9531V30Z" fill="white"/>
</svg>
